<svg width="162" height="37" viewBox="0 0 162 37" fill="none" xmlns="http://www.w3.org/2000/svg">
<mask id="path-1-outside-1_301_329" maskUnits="userSpaceOnUse" x="43.4502" y="0.275024" width="119" height="37" fill="black">
<rect fill="white" x="43.4502" y="0.275024" width="119" height="37"/>
<path d="M44.4502 27V1.80002H48.7202L57.0502 18.53L65.3802 1.80002H69.6502V27H65.2052V11.95L57.8902 27H56.2102L48.8952 11.95V27H44.4502ZM74.5625 27V8.10002H78.7625V12.72L78.3075 12.125C78.5525 11.4717 78.8792 10.8767 79.2875 10.34C79.6958 9.80336 80.1975 9.36002 80.7925 9.01003C81.2475 8.73002 81.7433 8.51419 82.28 8.36252C82.8167 8.19919 83.3708 8.10002 83.9425 8.06502C84.5142 8.01836 85.0858 8.03002 85.6575 8.10002V12.545C85.1325 12.3817 84.52 12.3292 83.82 12.3875C83.1317 12.4342 82.5075 12.5917 81.9475 12.86C81.3875 13.1167 80.915 13.4609 80.53 13.8925C80.145 14.3125 79.8533 14.8142 79.655 15.3975C79.4567 15.9692 79.3575 16.6167 79.3575 17.34V27H74.5625ZM89.3363 5.47502V1.27502H94.0963V5.47502H89.3363ZM89.3363 27V8.10002H94.0963V27H89.3363ZM107.428 35.925C106.354 35.925 105.334 35.75 104.365 35.4C103.397 35.0617 102.528 34.5834 101.758 33.965C100.999 33.3584 100.381 32.6467 99.9028 31.83L104.313 29.695C104.616 30.255 105.048 30.6809 105.608 30.9725C106.179 31.2642 106.798 31.41 107.463 31.41C108.174 31.41 108.845 31.2875 109.475 31.0425C110.105 30.8092 110.607 30.4534 110.98 29.975C111.365 29.5084 111.546 28.925 111.523 28.225V22.73H112.118V8.10002H116.283V28.295C116.283 28.7617 116.259 29.1992 116.213 29.6075C116.178 30.0275 116.108 30.4417 116.003 30.85C115.699 32.005 115.134 32.9559 114.305 33.7025C113.489 34.4492 112.485 35.0034 111.295 35.365C110.105 35.7384 108.816 35.925 107.428 35.925ZM107.008 27.525C105.269 27.525 103.747 27.0875 102.44 26.2125C101.134 25.3375 100.113 24.1475 99.3778 22.6425C98.6544 21.1375 98.2928 19.44 98.2928 17.55C98.2928 15.625 98.6603 13.9159 99.3953 12.4225C100.142 10.9175 101.186 9.73336 102.528 8.87002C103.869 8.00669 105.444 7.57502 107.253 7.57502C109.049 7.57502 110.56 8.01252 111.785 8.88752C113.01 9.76252 113.938 10.9525 114.568 12.4575C115.198 13.9625 115.513 15.66 115.513 17.55C115.513 19.44 115.192 21.1375 114.55 22.6425C113.92 24.1475 112.975 25.3375 111.715 26.2125C110.455 27.0875 108.886 27.525 107.008 27.525ZM107.778 23.29C108.839 23.29 109.685 23.0509 110.315 22.5725C110.957 22.0942 111.418 21.4234 111.698 20.56C111.978 19.6967 112.118 18.6934 112.118 17.55C112.118 16.4067 111.978 15.4034 111.698 14.54C111.418 13.6767 110.969 13.0059 110.35 12.5275C109.744 12.0492 108.944 11.81 107.953 11.81C106.891 11.81 106.016 12.0725 105.328 12.5975C104.651 13.1109 104.149 13.805 103.823 14.68C103.496 15.5434 103.333 16.5 103.333 17.55C103.333 18.6117 103.49 19.58 103.805 20.455C104.12 21.3184 104.604 22.0067 105.258 22.52C105.911 23.0334 106.751 23.29 107.778 23.29ZM129.689 27.525C127.787 27.525 126.119 27.0992 124.684 26.2475C123.249 25.3959 122.129 24.2234 121.324 22.73C120.53 21.225 120.134 19.4984 120.134 17.55C120.134 15.5784 120.542 13.8459 121.359 12.3525C122.175 10.8475 123.301 9.67502 124.736 8.83502C126.171 7.99502 127.822 7.57502 129.689 7.57502C131.59 7.57502 133.259 8.00086 134.694 8.85252C136.14 9.70419 137.266 10.8825 138.071 12.3875C138.876 13.8809 139.279 15.6017 139.279 17.55C139.279 19.51 138.87 21.2425 138.054 22.7475C137.249 24.2409 136.123 25.4134 134.676 26.265C133.241 27.105 131.579 27.525 129.689 27.525ZM129.689 23.08C131.217 23.08 132.354 22.5667 133.101 21.54C133.859 20.5017 134.239 19.1717 134.239 17.55C134.239 15.87 133.854 14.5284 133.084 13.525C132.325 12.5217 131.194 12.02 129.689 12.02C128.65 12.02 127.799 12.2534 127.134 12.72C126.469 13.1867 125.973 13.8342 125.646 14.6625C125.331 15.4909 125.174 16.4534 125.174 17.55C125.174 19.2417 125.553 20.5892 126.311 21.5925C127.081 22.5842 128.207 23.08 129.689 23.08ZM156.007 27V18.075C156.007 17.6434 155.984 17.095 155.937 16.43C155.89 15.7534 155.744 15.0767 155.499 14.4C155.254 13.7234 154.852 13.1575 154.292 12.7025C153.744 12.2475 152.962 12.02 151.947 12.02C151.539 12.02 151.101 12.0842 150.634 12.2125C150.168 12.3409 149.73 12.5917 149.322 12.965C148.914 13.3267 148.575 13.8634 148.307 14.575C148.05 15.2867 147.922 16.2317 147.922 17.41L145.192 16.115C145.192 14.6217 145.495 13.2217 146.102 11.915C146.709 10.6084 147.619 9.55252 148.832 8.74752C150.057 7.94252 151.597 7.54002 153.452 7.54002C154.934 7.54002 156.141 7.79086 157.074 8.29252C158.008 8.79419 158.731 9.43002 159.244 10.2C159.769 10.97 160.143 11.775 160.364 12.615C160.586 13.4434 160.72 14.2017 160.767 14.89C160.814 15.5784 160.837 16.08 160.837 16.395V27H156.007ZM143.092 27V8.10002H147.327V14.365H147.922V27H143.092Z"/>
</mask>
<path d="M44.4502 27V1.80002H48.7202L57.0502 18.53L65.3802 1.80002H69.6502V27H65.2052V11.95L57.8902 27H56.2102L48.8952 11.95V27H44.4502ZM74.5625 27V8.10002H78.7625V12.72L78.3075 12.125C78.5525 11.4717 78.8792 10.8767 79.2875 10.34C79.6958 9.80336 80.1975 9.36002 80.7925 9.01003C81.2475 8.73002 81.7433 8.51419 82.28 8.36252C82.8167 8.19919 83.3708 8.10002 83.9425 8.06502C84.5142 8.01836 85.0858 8.03002 85.6575 8.10002V12.545C85.1325 12.3817 84.52 12.3292 83.82 12.3875C83.1317 12.4342 82.5075 12.5917 81.9475 12.86C81.3875 13.1167 80.915 13.4609 80.53 13.8925C80.145 14.3125 79.8533 14.8142 79.655 15.3975C79.4567 15.9692 79.3575 16.6167 79.3575 17.34V27H74.5625ZM89.3363 5.47502V1.27502H94.0963V5.47502H89.3363ZM89.3363 27V8.10002H94.0963V27H89.3363ZM107.428 35.925C106.354 35.925 105.334 35.75 104.365 35.4C103.397 35.0617 102.528 34.5834 101.758 33.965C100.999 33.3584 100.381 32.6467 99.9028 31.83L104.313 29.695C104.616 30.255 105.048 30.6809 105.608 30.9725C106.179 31.2642 106.798 31.41 107.463 31.41C108.174 31.41 108.845 31.2875 109.475 31.0425C110.105 30.8092 110.607 30.4534 110.98 29.975C111.365 29.5084 111.546 28.925 111.523 28.225V22.73H112.118V8.10002H116.283V28.295C116.283 28.7617 116.259 29.1992 116.213 29.6075C116.178 30.0275 116.108 30.4417 116.003 30.85C115.699 32.005 115.134 32.9559 114.305 33.7025C113.489 34.4492 112.485 35.0034 111.295 35.365C110.105 35.7384 108.816 35.925 107.428 35.925ZM107.008 27.525C105.269 27.525 103.747 27.0875 102.44 26.2125C101.134 25.3375 100.113 24.1475 99.3778 22.6425C98.6544 21.1375 98.2928 19.44 98.2928 17.55C98.2928 15.625 98.6603 13.9159 99.3953 12.4225C100.142 10.9175 101.186 9.73336 102.528 8.87002C103.869 8.00669 105.444 7.57502 107.253 7.57502C109.049 7.57502 110.56 8.01252 111.785 8.88752C113.01 9.76252 113.938 10.9525 114.568 12.4575C115.198 13.9625 115.513 15.66 115.513 17.55C115.513 19.44 115.192 21.1375 114.55 22.6425C113.92 24.1475 112.975 25.3375 111.715 26.2125C110.455 27.0875 108.886 27.525 107.008 27.525ZM107.778 23.29C108.839 23.29 109.685 23.0509 110.315 22.5725C110.957 22.0942 111.418 21.4234 111.698 20.56C111.978 19.6967 112.118 18.6934 112.118 17.55C112.118 16.4067 111.978 15.4034 111.698 14.54C111.418 13.6767 110.969 13.0059 110.35 12.5275C109.744 12.0492 108.944 11.81 107.953 11.81C106.891 11.81 106.016 12.0725 105.328 12.5975C104.651 13.1109 104.149 13.805 103.823 14.68C103.496 15.5434 103.333 16.5 103.333 17.55C103.333 18.6117 103.49 19.58 103.805 20.455C104.12 21.3184 104.604 22.0067 105.258 22.52C105.911 23.0334 106.751 23.29 107.778 23.29ZM129.689 27.525C127.787 27.525 126.119 27.0992 124.684 26.2475C123.249 25.3959 122.129 24.2234 121.324 22.73C120.53 21.225 120.134 19.4984 120.134 17.55C120.134 15.5784 120.542 13.8459 121.359 12.3525C122.175 10.8475 123.301 9.67502 124.736 8.83502C126.171 7.99502 127.822 7.57502 129.689 7.57502C131.59 7.57502 133.259 8.00086 134.694 8.85252C136.14 9.70419 137.266 10.8825 138.071 12.3875C138.876 13.8809 139.279 15.6017 139.279 17.55C139.279 19.51 138.87 21.2425 138.054 22.7475C137.249 24.2409 136.123 25.4134 134.676 26.265C133.241 27.105 131.579 27.525 129.689 27.525ZM129.689 23.08C131.217 23.08 132.354 22.5667 133.101 21.54C133.859 20.5017 134.239 19.1717 134.239 17.55C134.239 15.87 133.854 14.5284 133.084 13.525C132.325 12.5217 131.194 12.02 129.689 12.02C128.65 12.02 127.799 12.2534 127.134 12.72C126.469 13.1867 125.973 13.8342 125.646 14.6625C125.331 15.4909 125.174 16.4534 125.174 17.55C125.174 19.2417 125.553 20.5892 126.311 21.5925C127.081 22.5842 128.207 23.08 129.689 23.08ZM156.007 27V18.075C156.007 17.6434 155.984 17.095 155.937 16.43C155.89 15.7534 155.744 15.0767 155.499 14.4C155.254 13.7234 154.852 13.1575 154.292 12.7025C153.744 12.2475 152.962 12.02 151.947 12.02C151.539 12.02 151.101 12.0842 150.634 12.2125C150.168 12.3409 149.73 12.5917 149.322 12.965C148.914 13.3267 148.575 13.8634 148.307 14.575C148.05 15.2867 147.922 16.2317 147.922 17.41L145.192 16.115C145.192 14.6217 145.495 13.2217 146.102 11.915C146.709 10.6084 147.619 9.55252 148.832 8.74752C150.057 7.94252 151.597 7.54002 153.452 7.54002C154.934 7.54002 156.141 7.79086 157.074 8.29252C158.008 8.79419 158.731 9.43002 159.244 10.2C159.769 10.97 160.143 11.775 160.364 12.615C160.586 13.4434 160.72 14.2017 160.767 14.89C160.814 15.5784 160.837 16.08 160.837 16.395V27H156.007ZM143.092 27V8.10002H147.327V14.365H147.922V27H143.092Z" stroke="white" stroke-width="2" mask="url(#path-1-outside-1_301_329)"/>
<path d="M13.4225 21.9613C13.4225 23.6749 12.7418 25.3183 11.53 26.5301C10.3183 27.7418 8.67488 28.4225 6.96125 28.4225C5.24762 28.4225 3.60418 27.7418 2.39246 26.5301C1.18074 25.3183 0.5 23.6749 0.5 21.9613C0.5 20.2476 1.18074 18.6042 2.39246 17.3925C3.60418 16.1808 5.24762 15.5 6.96125 15.5C8.67488 15.5 10.3183 16.1808 11.53 17.3925C12.7418 18.6042 13.4225 20.2476 13.4225 21.9613ZM21.4613 8.03876C21.4613 9.75239 20.7805 11.3958 19.5688 12.6076C18.3571 13.8193 16.7136 14.5 15 14.5C13.2864 14.5 11.6429 13.8193 10.4312 12.6076C9.21949 11.3958 8.53875 9.75239 8.53875 8.03876C8.53875 6.32513 9.21949 4.68169 10.4312 3.46997C11.6429 2.25825 13.2864 1.57751 15 1.57751C16.7136 1.57751 18.3571 2.25825 19.5688 3.46997C20.7805 4.68169 21.4613 6.32514 21.4613 8.03876ZM29.5 21.9613C29.5 23.6749 28.8193 25.3183 27.6075 26.5301C26.3958 27.7418 24.7524 28.4225 23.0387 28.4225C21.3251 28.4225 19.6817 27.7418 18.47 26.5301C17.2582 25.3183 16.5775 23.6749 16.5775 21.9613C16.5775 20.2476 17.2582 18.6042 18.47 17.3925C19.6817 16.1808 21.3251 15.5 23.0387 15.5C24.7524 15.5 26.3958 16.1808 27.6075 17.3925C28.8193 18.6042 29.5 20.2476 29.5 21.9613Z" fill="white"/>
<path d="M13.4225 21.9613C13.4225 23.6749 12.7418 25.3183 11.53 26.5301C10.3183 27.7418 8.67488 28.4225 6.96125 28.4225C5.24762 28.4225 3.60418 27.7418 2.39246 26.5301C1.18074 25.3183 0.5 23.6749 0.5 21.9613C0.5 20.2476 1.18074 18.6042 2.39246 17.3925C3.60418 16.1808 5.24762 15.5 6.96125 15.5C8.67488 15.5 10.3183 16.1808 11.53 17.3925C12.7418 18.6042 13.4225 20.2476 13.4225 21.9613ZM21.4613 8.03876C21.4613 9.75239 20.7805 11.3958 19.5688 12.6076C18.3571 13.8193 16.7136 14.5 15 14.5C13.2864 14.5 11.6429 13.8193 10.4312 12.6076C9.21949 11.3958 8.53875 9.75239 8.53875 8.03876C8.53875 6.32513 9.21949 4.68169 10.4312 3.46997C11.6429 2.25825 13.2864 1.57751 15 1.57751C16.7136 1.57751 18.3571 2.25825 19.5688 3.46997C20.7805 4.68169 21.4613 6.32514 21.4613 8.03876ZM29.5 21.9613C29.5 23.6749 28.8193 25.3183 27.6075 26.5301C26.3958 27.7418 24.7524 28.4225 23.0387 28.4225C21.3251 28.4225 19.6817 27.7418 18.47 26.5301C17.2582 25.3183 16.5775 23.6749 16.5775 21.9613C16.5775 20.2476 17.2582 18.6042 18.47 17.3925C19.6817 16.1808 21.3251 15.5 23.0387 15.5C24.7524 15.5 26.3958 16.1808 27.6075 17.3925C28.8193 18.6042 29.5 20.2476 29.5 21.9613Z" fill="url(#paint0_linear_301_329)"/>
<path d="M13.4225 21.9613C13.4225 23.6749 12.7418 25.3183 11.53 26.5301C10.3183 27.7418 8.67488 28.4225 6.96125 28.4225C5.24762 28.4225 3.60418 27.7418 2.39246 26.5301C1.18074 25.3183 0.5 23.6749 0.5 21.9613C0.5 20.2476 1.18074 18.6042 2.39246 17.3925C3.60418 16.1808 5.24762 15.5 6.96125 15.5C8.67488 15.5 10.3183 16.1808 11.53 17.3925C12.7418 18.6042 13.4225 20.2476 13.4225 21.9613ZM21.4613 8.03876C21.4613 9.75239 20.7805 11.3958 19.5688 12.6076C18.3571 13.8193 16.7136 14.5 15 14.5C13.2864 14.5 11.6429 13.8193 10.4312 12.6076C9.21949 11.3958 8.53875 9.75239 8.53875 8.03876C8.53875 6.32513 9.21949 4.68169 10.4312 3.46997C11.6429 2.25825 13.2864 1.57751 15 1.57751C16.7136 1.57751 18.3571 2.25825 19.5688 3.46997C20.7805 4.68169 21.4613 6.32514 21.4613 8.03876ZM29.5 21.9613C29.5 23.6749 28.8193 25.3183 27.6075 26.5301C26.3958 27.7418 24.7524 28.4225 23.0387 28.4225C21.3251 28.4225 19.6817 27.7418 18.47 26.5301C17.2582 25.3183 16.5775 23.6749 16.5775 21.9613C16.5775 20.2476 17.2582 18.6042 18.47 17.3925C19.6817 16.1808 21.3251 15.5 23.0387 15.5C24.7524 15.5 26.3958 16.1808 27.6075 17.3925C28.8193 18.6042 29.5 20.2476 29.5 21.9613Z" stroke="white"/>
<defs>
<linearGradient id="paint0_linear_301_329" x1="0" y1="1.07751" x2="30" y2="1.07751" gradientUnits="userSpaceOnUse">
<stop stop-color="#0788FF"/>
<stop offset="1" stop-color="#9900FF"/>
</linearGradient>
</defs>
</svg>
