<svg width="162" height="37" viewBox="0 0 162 37" fill="none" xmlns="http://www.w3.org/2000/svg">
<mask id="path-1-outside-1_344_356" maskUnits="userSpaceOnUse" x="43.4492" y="0.275024" width="119" height="37" fill="black">
<rect fill="white" x="43.4492" y="0.275024" width="119" height="37"/>
<path d="M44.4492 27V1.80002H48.7192L57.0492 18.53L65.3792 1.80002H69.6492V27H65.2042V11.95L57.8892 27H56.2092L48.8942 11.95V27H44.4492ZM74.5615 27V8.10002H78.7615V12.72L78.3065 12.125C78.5515 11.4717 78.8782 10.8767 79.2865 10.34C79.6949 9.80336 80.1965 9.36002 80.7915 9.01003C81.2465 8.73002 81.7424 8.51419 82.279 8.36252C82.8157 8.19919 83.3699 8.10002 83.9415 8.06502C84.5132 8.01836 85.0849 8.03002 85.6565 8.10002V12.545C85.1315 12.3817 84.519 12.3292 83.819 12.3875C83.1307 12.4342 82.5065 12.5917 81.9465 12.86C81.3865 13.1167 80.914 13.4609 80.529 13.8925C80.144 14.3125 79.8524 14.8142 79.654 15.3975C79.4557 15.9692 79.3565 16.6167 79.3565 17.34V27H74.5615ZM89.3354 5.47502V1.27502H94.0954V5.47502H89.3354ZM89.3354 27V8.10002H94.0954V27H89.3354ZM107.427 35.925C106.353 35.925 105.333 35.75 104.364 35.4C103.396 35.0617 102.527 34.5834 101.757 33.965C100.998 33.3584 100.38 32.6467 99.9018 31.83L104.312 29.695C104.615 30.255 105.047 30.6809 105.607 30.9725C106.178 31.2642 106.797 31.41 107.462 31.41C108.173 31.41 108.844 31.2875 109.474 31.0425C110.104 30.8092 110.606 30.4534 110.979 29.975C111.364 29.5084 111.545 28.925 111.522 28.225V22.73H112.117V8.10002H116.282V28.295C116.282 28.7617 116.258 29.1992 116.212 29.6075C116.177 30.0275 116.107 30.4417 116.002 30.85C115.698 32.005 115.133 32.9559 114.304 33.7025C113.488 34.4492 112.484 35.0034 111.294 35.365C110.104 35.7384 108.815 35.925 107.427 35.925ZM107.007 27.525C105.268 27.525 103.746 27.0875 102.439 26.2125C101.133 25.3375 100.112 24.1475 99.3768 22.6425C98.6535 21.1375 98.2918 19.44 98.2918 17.55C98.2918 15.625 98.6593 13.9159 99.3943 12.4225C100.141 10.9175 101.185 9.73336 102.527 8.87002C103.868 8.00669 105.443 7.57502 107.252 7.57502C109.048 7.57502 110.559 8.01252 111.784 8.88752C113.009 9.76252 113.937 10.9525 114.567 12.4575C115.197 13.9625 115.512 15.66 115.512 17.55C115.512 19.44 115.191 21.1375 114.549 22.6425C113.919 24.1475 112.974 25.3375 111.714 26.2125C110.454 27.0875 108.885 27.525 107.007 27.525ZM107.777 23.29C108.838 23.29 109.684 23.0509 110.314 22.5725C110.956 22.0942 111.417 21.4234 111.697 20.56C111.977 19.6967 112.117 18.6934 112.117 17.55C112.117 16.4067 111.977 15.4034 111.697 14.54C111.417 13.6767 110.968 13.0059 110.349 12.5275C109.743 12.0492 108.943 11.81 107.952 11.81C106.89 11.81 106.015 12.0725 105.327 12.5975C104.65 13.1109 104.148 13.805 103.822 14.68C103.495 15.5434 103.332 16.5 103.332 17.55C103.332 18.6117 103.489 19.58 103.804 20.455C104.119 21.3184 104.603 22.0067 105.257 22.52C105.91 23.0334 106.75 23.29 107.777 23.29ZM129.688 27.525C127.786 27.525 126.118 27.0992 124.683 26.2475C123.248 25.3959 122.128 24.2234 121.323 22.73C120.529 21.225 120.133 19.4984 120.133 17.55C120.133 15.5784 120.541 13.8459 121.358 12.3525C122.174 10.8475 123.3 9.67502 124.735 8.83502C126.17 7.99502 127.821 7.57502 129.688 7.57502C131.589 7.57502 133.258 8.00086 134.693 8.85252C136.139 9.70419 137.265 10.8825 138.07 12.3875C138.875 13.8809 139.278 15.6017 139.278 17.55C139.278 19.51 138.869 21.2425 138.053 22.7475C137.248 24.2409 136.122 25.4134 134.675 26.265C133.24 27.105 131.578 27.525 129.688 27.525ZM129.688 23.08C131.216 23.08 132.353 22.5667 133.1 21.54C133.858 20.5017 134.238 19.1717 134.238 17.55C134.238 15.87 133.853 14.5284 133.083 13.525C132.324 12.5217 131.193 12.02 129.688 12.02C128.649 12.02 127.798 12.2534 127.133 12.72C126.468 13.1867 125.972 13.8342 125.645 14.6625C125.33 15.4909 125.173 16.4534 125.173 17.55C125.173 19.2417 125.552 20.5892 126.31 21.5925C127.08 22.5842 128.206 23.08 129.688 23.08ZM156.006 27V18.075C156.006 17.6434 155.983 17.095 155.936 16.43C155.889 15.7534 155.743 15.0767 155.498 14.4C155.253 13.7234 154.851 13.1575 154.291 12.7025C153.743 12.2475 152.961 12.02 151.946 12.02C151.538 12.02 151.1 12.0842 150.633 12.2125C150.167 12.3409 149.729 12.5917 149.321 12.965C148.913 13.3267 148.574 13.8634 148.306 14.575C148.049 15.2867 147.921 16.2317 147.921 17.41L145.191 16.115C145.191 14.6217 145.494 13.2217 146.101 11.915C146.708 10.6084 147.618 9.55252 148.831 8.74752C150.056 7.94252 151.596 7.54002 153.451 7.54002C154.933 7.54002 156.14 7.79086 157.073 8.29252C158.007 8.79419 158.73 9.43002 159.243 10.2C159.768 10.97 160.142 11.775 160.363 12.615C160.585 13.4434 160.719 14.2017 160.766 14.89C160.813 15.5784 160.836 16.08 160.836 16.395V27H156.006ZM143.091 27V8.10002H147.326V14.365H147.921V27H143.091Z"/>
</mask>
<path d="M44.4492 27V1.80002H48.7192L57.0492 18.53L65.3792 1.80002H69.6492V27H65.2042V11.95L57.8892 27H56.2092L48.8942 11.95V27H44.4492ZM74.5615 27V8.10002H78.7615V12.72L78.3065 12.125C78.5515 11.4717 78.8782 10.8767 79.2865 10.34C79.6949 9.80336 80.1965 9.36002 80.7915 9.01003C81.2465 8.73002 81.7424 8.51419 82.279 8.36252C82.8157 8.19919 83.3699 8.10002 83.9415 8.06502C84.5132 8.01836 85.0849 8.03002 85.6565 8.10002V12.545C85.1315 12.3817 84.519 12.3292 83.819 12.3875C83.1307 12.4342 82.5065 12.5917 81.9465 12.86C81.3865 13.1167 80.914 13.4609 80.529 13.8925C80.144 14.3125 79.8524 14.8142 79.654 15.3975C79.4557 15.9692 79.3565 16.6167 79.3565 17.34V27H74.5615ZM89.3354 5.47502V1.27502H94.0954V5.47502H89.3354ZM89.3354 27V8.10002H94.0954V27H89.3354ZM107.427 35.925C106.353 35.925 105.333 35.75 104.364 35.4C103.396 35.0617 102.527 34.5834 101.757 33.965C100.998 33.3584 100.38 32.6467 99.9018 31.83L104.312 29.695C104.615 30.255 105.047 30.6809 105.607 30.9725C106.178 31.2642 106.797 31.41 107.462 31.41C108.173 31.41 108.844 31.2875 109.474 31.0425C110.104 30.8092 110.606 30.4534 110.979 29.975C111.364 29.5084 111.545 28.925 111.522 28.225V22.73H112.117V8.10002H116.282V28.295C116.282 28.7617 116.258 29.1992 116.212 29.6075C116.177 30.0275 116.107 30.4417 116.002 30.85C115.698 32.005 115.133 32.9559 114.304 33.7025C113.488 34.4492 112.484 35.0034 111.294 35.365C110.104 35.7384 108.815 35.925 107.427 35.925ZM107.007 27.525C105.268 27.525 103.746 27.0875 102.439 26.2125C101.133 25.3375 100.112 24.1475 99.3768 22.6425C98.6535 21.1375 98.2918 19.44 98.2918 17.55C98.2918 15.625 98.6593 13.9159 99.3943 12.4225C100.141 10.9175 101.185 9.73336 102.527 8.87002C103.868 8.00669 105.443 7.57502 107.252 7.57502C109.048 7.57502 110.559 8.01252 111.784 8.88752C113.009 9.76252 113.937 10.9525 114.567 12.4575C115.197 13.9625 115.512 15.66 115.512 17.55C115.512 19.44 115.191 21.1375 114.549 22.6425C113.919 24.1475 112.974 25.3375 111.714 26.2125C110.454 27.0875 108.885 27.525 107.007 27.525ZM107.777 23.29C108.838 23.29 109.684 23.0509 110.314 22.5725C110.956 22.0942 111.417 21.4234 111.697 20.56C111.977 19.6967 112.117 18.6934 112.117 17.55C112.117 16.4067 111.977 15.4034 111.697 14.54C111.417 13.6767 110.968 13.0059 110.349 12.5275C109.743 12.0492 108.943 11.81 107.952 11.81C106.89 11.81 106.015 12.0725 105.327 12.5975C104.65 13.1109 104.148 13.805 103.822 14.68C103.495 15.5434 103.332 16.5 103.332 17.55C103.332 18.6117 103.489 19.58 103.804 20.455C104.119 21.3184 104.603 22.0067 105.257 22.52C105.91 23.0334 106.75 23.29 107.777 23.29ZM129.688 27.525C127.786 27.525 126.118 27.0992 124.683 26.2475C123.248 25.3959 122.128 24.2234 121.323 22.73C120.529 21.225 120.133 19.4984 120.133 17.55C120.133 15.5784 120.541 13.8459 121.358 12.3525C122.174 10.8475 123.3 9.67502 124.735 8.83502C126.17 7.99502 127.821 7.57502 129.688 7.57502C131.589 7.57502 133.258 8.00086 134.693 8.85252C136.139 9.70419 137.265 10.8825 138.07 12.3875C138.875 13.8809 139.278 15.6017 139.278 17.55C139.278 19.51 138.869 21.2425 138.053 22.7475C137.248 24.2409 136.122 25.4134 134.675 26.265C133.24 27.105 131.578 27.525 129.688 27.525ZM129.688 23.08C131.216 23.08 132.353 22.5667 133.1 21.54C133.858 20.5017 134.238 19.1717 134.238 17.55C134.238 15.87 133.853 14.5284 133.083 13.525C132.324 12.5217 131.193 12.02 129.688 12.02C128.649 12.02 127.798 12.2534 127.133 12.72C126.468 13.1867 125.972 13.8342 125.645 14.6625C125.33 15.4909 125.173 16.4534 125.173 17.55C125.173 19.2417 125.552 20.5892 126.31 21.5925C127.08 22.5842 128.206 23.08 129.688 23.08ZM156.006 27V18.075C156.006 17.6434 155.983 17.095 155.936 16.43C155.889 15.7534 155.743 15.0767 155.498 14.4C155.253 13.7234 154.851 13.1575 154.291 12.7025C153.743 12.2475 152.961 12.02 151.946 12.02C151.538 12.02 151.1 12.0842 150.633 12.2125C150.167 12.3409 149.729 12.5917 149.321 12.965C148.913 13.3267 148.574 13.8634 148.306 14.575C148.049 15.2867 147.921 16.2317 147.921 17.41L145.191 16.115C145.191 14.6217 145.494 13.2217 146.101 11.915C146.708 10.6084 147.618 9.55252 148.831 8.74752C150.056 7.94252 151.596 7.54002 153.451 7.54002C154.933 7.54002 156.14 7.79086 157.073 8.29252C158.007 8.79419 158.73 9.43002 159.243 10.2C159.768 10.97 160.142 11.775 160.363 12.615C160.585 13.4434 160.719 14.2017 160.766 14.89C160.813 15.5784 160.836 16.08 160.836 16.395V27H156.006ZM143.091 27V8.10002H147.326V14.365H147.921V27H143.091Z" stroke="black" stroke-width="2" mask="url(#path-1-outside-1_344_356)"/>
<path d="M13.4225 21.9613C13.4225 23.6749 12.7418 25.3183 11.53 26.5301C10.3183 27.7418 8.67488 28.4225 6.96125 28.4225C5.24762 28.4225 3.60418 27.7418 2.39246 26.5301C1.18074 25.3183 0.5 23.6749 0.5 21.9613C0.5 20.2476 1.18074 18.6042 2.39246 17.3925C3.60418 16.1808 5.24762 15.5 6.96125 15.5C8.67488 15.5 10.3183 16.1808 11.53 17.3925C12.7418 18.6042 13.4225 20.2476 13.4225 21.9613ZM21.4613 8.03876C21.4613 9.75239 20.7805 11.3958 19.5688 12.6076C18.3571 13.8193 16.7136 14.5 15 14.5C13.2864 14.5 11.6429 13.8193 10.4312 12.6076C9.21949 11.3958 8.53875 9.75239 8.53875 8.03876C8.53875 6.32513 9.21949 4.68169 10.4312 3.46997C11.6429 2.25825 13.2864 1.57751 15 1.57751C16.7136 1.57751 18.3571 2.25825 19.5688 3.46997C20.7805 4.68169 21.4613 6.32514 21.4613 8.03876ZM29.5 21.9613C29.5 23.6749 28.8193 25.3183 27.6075 26.5301C26.3958 27.7418 24.7524 28.4225 23.0387 28.4225C21.3251 28.4225 19.6817 27.7418 18.47 26.5301C17.2582 25.3183 16.5775 23.6749 16.5775 21.9613C16.5775 20.2476 17.2582 18.6042 18.47 17.3925C19.6817 16.1808 21.3251 15.5 23.0387 15.5C24.7524 15.5 26.3958 16.1808 27.6075 17.3925C28.8193 18.6042 29.5 20.2476 29.5 21.9613Z" fill="black"/>
<path d="M13.4225 21.9613C13.4225 23.6749 12.7418 25.3183 11.53 26.5301C10.3183 27.7418 8.67488 28.4225 6.96125 28.4225C5.24762 28.4225 3.60418 27.7418 2.39246 26.5301C1.18074 25.3183 0.5 23.6749 0.5 21.9613C0.5 20.2476 1.18074 18.6042 2.39246 17.3925C3.60418 16.1808 5.24762 15.5 6.96125 15.5C8.67488 15.5 10.3183 16.1808 11.53 17.3925C12.7418 18.6042 13.4225 20.2476 13.4225 21.9613ZM21.4613 8.03876C21.4613 9.75239 20.7805 11.3958 19.5688 12.6076C18.3571 13.8193 16.7136 14.5 15 14.5C13.2864 14.5 11.6429 13.8193 10.4312 12.6076C9.21949 11.3958 8.53875 9.75239 8.53875 8.03876C8.53875 6.32513 9.21949 4.68169 10.4312 3.46997C11.6429 2.25825 13.2864 1.57751 15 1.57751C16.7136 1.57751 18.3571 2.25825 19.5688 3.46997C20.7805 4.68169 21.4613 6.32514 21.4613 8.03876ZM29.5 21.9613C29.5 23.6749 28.8193 25.3183 27.6075 26.5301C26.3958 27.7418 24.7524 28.4225 23.0387 28.4225C21.3251 28.4225 19.6817 27.7418 18.47 26.5301C17.2582 25.3183 16.5775 23.6749 16.5775 21.9613C16.5775 20.2476 17.2582 18.6042 18.47 17.3925C19.6817 16.1808 21.3251 15.5 23.0387 15.5C24.7524 15.5 26.3958 16.1808 27.6075 17.3925C28.8193 18.6042 29.5 20.2476 29.5 21.9613Z" fill="url(#paint0_linear_344_356)"/>
<path d="M13.4225 21.9613C13.4225 23.6749 12.7418 25.3183 11.53 26.5301C10.3183 27.7418 8.67488 28.4225 6.96125 28.4225C5.24762 28.4225 3.60418 27.7418 2.39246 26.5301C1.18074 25.3183 0.5 23.6749 0.5 21.9613C0.5 20.2476 1.18074 18.6042 2.39246 17.3925C3.60418 16.1808 5.24762 15.5 6.96125 15.5C8.67488 15.5 10.3183 16.1808 11.53 17.3925C12.7418 18.6042 13.4225 20.2476 13.4225 21.9613ZM21.4613 8.03876C21.4613 9.75239 20.7805 11.3958 19.5688 12.6076C18.3571 13.8193 16.7136 14.5 15 14.5C13.2864 14.5 11.6429 13.8193 10.4312 12.6076C9.21949 11.3958 8.53875 9.75239 8.53875 8.03876C8.53875 6.32513 9.21949 4.68169 10.4312 3.46997C11.6429 2.25825 13.2864 1.57751 15 1.57751C16.7136 1.57751 18.3571 2.25825 19.5688 3.46997C20.7805 4.68169 21.4613 6.32514 21.4613 8.03876ZM29.5 21.9613C29.5 23.6749 28.8193 25.3183 27.6075 26.5301C26.3958 27.7418 24.7524 28.4225 23.0387 28.4225C21.3251 28.4225 19.6817 27.7418 18.47 26.5301C17.2582 25.3183 16.5775 23.6749 16.5775 21.9613C16.5775 20.2476 17.2582 18.6042 18.47 17.3925C19.6817 16.1808 21.3251 15.5 23.0387 15.5C24.7524 15.5 26.3958 16.1808 27.6075 17.3925C28.8193 18.6042 29.5 20.2476 29.5 21.9613Z" stroke="black"/>
<defs>
<linearGradient id="paint0_linear_344_356" x1="0" y1="1.07751" x2="30" y2="1.07751" gradientUnits="userSpaceOnUse">
<stop stop-color="#0788FF"/>
<stop offset="1" stop-color="#9900FF"/>
</linearGradient>
</defs>
</svg>
